<?xml version="1.0" encoding="utf-8"?>
<!-- Generator: Adobe Illustrator 23.0.0, SVG Export Plug-In . SVG Version: 6.00 Build 0)  -->
<svg version="1.1" id="Camada_1" xmlns="http://www.w3.org/2000/svg" xmlns:xlink="http://www.w3.org/1999/xlink" x="0px" y="0px"
	 viewBox="0 0 770.8 537.4" style="enable-background:new 0 0 770.8 537.4;" xml:space="preserve">
<style type="text/css">
	.st0{fill:#EC6697;}
	.st1{fill:#A94F97;}
	.st2{enable-background:new    ;}
	.st3{fill:#FFFFFF;}
</style>
<g>
	<g>
		<path class="st0" d="M287.4,202.1c60,162-106.7,221.4,77.8,303.4c137.9,61.3,170.9-36.5,288.5-53.6s118.3-89.4,103-146.3
			c-15.3-57-55.6-253.5-307.4-275.3C342.1,20.9,227.4,40.1,287.4,202.1z"/>
		<path class="st1" d="M434.4,106.9C312.2,229.1,294.1-26,113.6,105.3C42.3,157.2,13.1,241.4,11.5,320.8
			c-1.1,51.9,52.2,173.4,200.2,184.8c187.1,14.5,221.1,4.8,248.6-196.1c11.9-86.7,141-273.8,25.9-277.1
			C463.5,31.8,458.7,82.6,434.4,106.9z"/>
		<circle class="st0" cx="282.6" cy="63.2" r="57.5"/>
		<circle class="st1" cx="402" cy="69.7" r="57.5"/>
	</g>
	<g class="st2">
		<path class="st3" d="M358.5,192.8c-9.5,0.8-19.1,2.8-28.3,4.3c-2.8,14.5,1.5,29.1-1.5,43.6c-1,4.3,1.5,9,1.8,13.5
			c0.5,6.5,0,13.3,0.3,20.1c0.3,4.3,2.3,8.3,2.3,12.3c-0.5,13,0.5,26.1,1,39.1c0.3,7,1.3,14,2,21.8c7.8,3.5,18.8,0.5,25.3,9.5
			c-3,7-7.8,10.3-15.3,9.5c-3-0.5-6.3-0.3-9.5-0.3c-4.3,9-1.8,18.1-3,26.6c-0.3,2.8,0.5,6.8-1,8.3c-4.5,5-2,11.8-6,17.3
			c-3.8,5.5-9,6.8-13.8,6.5c-5-0.5-10.3-3.8-11.5-9.8c-2.3-11-5.3-22.3-6.5-33.6c-2-21.3-3.5-42.6-4.5-64c-1-22.1-2.3-44.1-1.5-66
			c0.8-20.3,0-40.9,6.8-60.4c1.5-4.8,2.5-9.5,8-12.8c4.8-2.8,9.3-3.5,12.8-2c4.3,1.8,7.5,0.8,11.3,0.5c10.3-1,20.6-2,30.6-2.8
			c6.8-0.5,11.8,2.3,14,9C369.8,189.5,365.5,192.3,358.5,192.8z"/>
		<path class="st3" d="M467.8,260.3c4.3-21.6,7.8-43.4,16.3-64.5c3,0,6.5,0,10,0c3.3,6,3.3,11.8,2,18.3c-5,25.6-10,51.4-14.3,77
			c-3,17.8-5,35.9-7.5,53.7c-2,13.5-4,27.3-5.8,40.9c-0.5,4-1,7.8-0.8,11.8c0.3,8.8-3.3,15.8-9.3,22.6c-3.8,4-7.8,5.8-13,4.8
			c-12-2-20.6-8.3-24.1-19.8c-7.8-24.8-13-50.2-17.6-75.7c-1.5-8-3.5-15.8-5.3-23.8c-3.5-18.1-7.3-36.1-10.5-54.2
			c-2.3-11.5-4-23.1-6.3-34.6c-1.8-9.5-1.5-19.1,0.3-28.6c2-9.3,5.8-10.5,16.1-13c9.3-2.5,11.8,2.3,16.1,8
			c10,13.8,13.8,30.1,17.6,46.4c1.3,5.8,2.5,11.8,3.8,17.6c1.8,8.8,3.8,17.3,5.5,26.1c1.3,5.5,2.8,11,4,16.6c0.8,4,1,8.5,2,12.5
			c1.8,7.5,4,14.8,6.8,24.8C458.8,303.2,463.3,281.6,467.8,260.3z"/>
	</g>
</g>
</svg>
